# xmcd
#
# Track frame offsets: 
#        150
#        10889
#        22664
#        32718
#        42315
#        49740
#        61013
#        72165
#        81390
#        95199
#        103610
#        115299
#        125864
#        136899
#        146790
#        158039
#        168393
#        179489
#        188970
#        201495
#        214739
#        224738
#        236715
#        248350
#        259375
#        271909
#        282765
#        306863
#        318165
#
# Disc length: 4248 seconds
#
# Revision: 0
# Processed by: cddbd v1.5.2PL0 Copyright (c) Steve Scherf et al.
# Submitted via: ExactAudioCopy v0.95b4
#
DISCID=b510961d
DTITLE=The Beatles  - The Anthology DVD Songtrack - Volume 1 - 1962-19
DTITLE=66
DYEAR=1900
DGENRE=
TTITLE0=Love Me Do (Ringo Version)
TTITLE1=Twist And Shout
TTITLE2=It Won't Be Long
TTITLE3=Please Mr. Postman
TTITLE4=I Wanna Be Your Man
TTITLE5=I Want To Hold Your Hand
TTITLE6=This Boy
TTITLE7=Long Tall Sally
TTITLE8=If I Fell
TTITLE9=I'll Follow The Sun
TTITLE10=Rock'n Roll Music
TTITLE11=I Feel Fine
TTITLE12=You're Going To Lose That Girl
TTITLE13=You've Got To Hide Your Love Away
TTITLE14=Day Tripper
TTITLE15=We Can Work It Out
TTITLE16=In My Life
TTITLE17=For No One
TTITLE18=Paperback Writer
TTITLE19=Rain
TTITLE20=One After 909
TTITLE21=Hold Me Tight (Take 23)
TTITLE22=I'll Be Back (Takes 2+3)
TTITLE23=Leave My Kitten Alone
TTITLE24=If You've Got Troubles
TTITLE25=And Your Bid Can Sing (Take 2)
TTITLE26=Tomorrow Never Knows (Takes 1+3 With Threetles)
TTITLE27=Strawberry Fields Forever (Take 1)
TTITLE28=Love Me Do
EXTD=
EXTT0=
EXTT1=
EXTT2=
EXTT3=
EXTT4=
EXTT5=
EXTT6=
EXTT7=
EXTT8=
EXTT9=
EXTT10=
EXTT11=
EXTT12=
EXTT13=
EXTT14=
EXTT15=
EXTT16=
EXTT17=
EXTT18=
EXTT19=
EXTT20=
EXTT21=
EXTT22=
EXTT23=
EXTT24=
EXTT25=
EXTT26=
EXTT27=
EXTT28=
PLAYORDER=
